<svg xmlns="http://www.w3.org/2000/svg" x="0px" y="0px"
	 viewBox="0 0 800 800" width="100%" height="100%">
<path d="M520.36,546.44c46.29-129.85,33.31-306.95,30.78-335.98c36.09-2.52,68.55-3.8,96.53-3.8c47.36,0,81.73,3.64,102.14,10.83
	c11.63,4.1,20.23,19.84,23.59,43.21c4.82,33.52-1.43,77.66-16.72,118.09c-12.8,33.84-37.88,81.25-84.7,114.97
	C643.38,514.35,592.39,532.07,520.36,546.44z M514.67,335.8c-1.99,64.63-10.94,155.92-42.29,223.85
	c-46.32,100.37-260.45,111.2-350.37,111.2c-4.34,0-8.43-0.02-12.28-0.07c-19.11-0.2-34.97-15.33-36.12-34.44
	c-5.36-89.23,1.8-305.56,183.49-386.92c74.38-33.31,146.95-40.3,194.74-40.3c30.58,0,52.4,2.86,59.83,4
	C512.73,225.26,516.55,274.68,514.67,335.8z M217.7,439.9l49.82-22.42c4.25-1.91,6.98-6.13,6.98-10.79c0-4.66-2.73-8.88-6.98-10.79
	l-49.82-22.42c-5.96-2.68-12.96-0.03-15.65,5.93c-2.68,5.96-0.02,12.96,5.93,15.65l25.84,11.63l-25.84,11.63
	c-5.96,2.68-8.62,9.69-5.93,15.65c1.97,4.38,6.28,6.98,10.8,6.98C214.48,440.94,216.13,440.61,217.7,439.9z M349.62,497.75
	c-34.01-23.91-79.72-23.91-113.73,0c-5.63,3.96-6.98,11.72-3.03,17.35c3.96,5.63,11.73,6.98,17.35,3.03
	c25.45-17.89,59.64-17.89,85.09,0c2.18,1.53,4.68,2.27,7.15,2.27c3.92,0,7.78-1.85,10.2-5.29
	C356.6,509.47,355.25,501.71,349.62,497.75z M351.67,406.69l25.84-11.63c5.96-2.68,8.62-9.69,5.93-15.65
	c-2.68-5.96-9.69-8.62-15.65-5.93l-49.82,22.42c-4.25,1.91-6.98,6.13-6.98,10.79c0,4.66,2.73,8.88,6.98,10.79l49.82,22.42
	c1.58,0.71,3.23,1.05,4.85,1.05c4.51,0,8.82-2.6,10.8-6.98c2.68-5.96,0.02-12.96-5.93-15.65L351.67,406.69z M205.17,174
	c2.75,1.32,4.58-3.96,3.54-6.83c-6.09-16.75-25.11-63.21-54.1-80.39c-35.65-21.13-64.72-3.76-72.88,10.01
	c-8.16,13.77-7.1,39.12,19.16,54.51C131.37,169.15,158.85,151.74,205.17,174z M141.98,242.22c2.38-0.71,0.59-4.89-1.6-6.05
	c-12.82-6.76-49.66-24.34-76.51-18.85c-33.01,6.76-41.03,33.1-38.42,45.85c2.61,12.75,17.1,27.44,41.32,22.35
	C94.89,279.63,101.93,254.12,141.98,242.22z M559.83,599.88c-2.65-3.32-8.62-3.32-11.26,0c-10.94,13.74-34,45.94-34,73.32
	c0,35.89,25.77,49.88,39.63,49.88s39.63-13.99,39.63-49.88C593.83,645.83,570.77,613.62,559.83,599.88z" fill="currentColor"/>
</svg>
