<svg xmlns="http://www.w3.org/2000/svg" x="0px" y="0px"
	 viewBox="0 0 800 800" width="100%" height="100%">
<path d="M520.7,544.3c45.7-128.1,32.9-302.9,30.4-331.5c35.6-2.5,67.6-3.8,95.3-3.8c46.7,0,80.7,3.6,100.8,10.7
	c11.5,4,20,19.6,23.3,42.6c4.8,33.1-1.4,76.6-16.5,116.5c-12.6,33.4-37.4,80.2-83.6,113.4C642.1,512.7,591.8,530.1,520.7,544.3z
	 M204.5,150.3c-41.4-23.2-62-43.8-85.2-85.2c-1.9-3.3-6.7-3.3-8.6,0c-23.2,41.4-43.8,62-85.2,85.2c-3.4,1.9-3.4,6.7,0,8.6
	c41.4,23.2,62,43.8,85.2,85.2c1.9,3.4,6.7,3.4,8.6,0c23.2-41.4,43.8-62,85.2-85.2C207.8,157,207.8,152.2,204.5,150.3z M659.5,634.1
	c-22.4-13-34.5-25-47.4-47.4c-1.9-3.3-6.6-3.3-8.5,0c-13,22.4-25,34.5-47.4,47.4c-3.3,1.9-3.3,6.6,0,8.5c22.4,13,34.5,25,47.4,47.4
	c1.9,3.3,6.6,3.3,8.5,0c13-22.4,25-34.5,47.4-47.4C662.8,640.7,662.8,636,659.5,634.1z M509.1,336.5c-2,63.8-10.8,153.9-41.7,220.9
	c-45.7,99-257,109.7-345.7,109.7c-4.3,0-8.3,0-12.1-0.1c-18.8-0.2-34.5-15.1-35.6-34c-5.3-88,1.8-301.5,181.1-381.8
	c73.4-32.9,145-39.8,192.2-39.8c30.2,0,51.7,2.8,59,3.9C507.2,227.4,511,276.2,509.1,336.5z M226.2,423.5
	c13.4,0,24.3-10.9,24.3-24.3c0-13.4-10.9-24.3-24.3-24.3S202,385.8,202,399.2C202,412.6,212.8,423.5,226.2,423.5z M350.3,471.8
	H222.8c-3.2,0-5.6,3-4.8,6.2c7.7,29.4,35.5,51.2,68.5,51.2s60.8-21.8,68.5-51.2C355.9,474.8,353.5,471.8,350.3,471.8z M370.8,399.2
	c0-13.4-10.9-24.3-24.3-24.3c-13.4,0-24.3,10.9-24.3,24.3c0,13.4,10.9,24.3,24.3,24.3C359.9,423.5,370.8,412.6,370.8,399.2z" fill="currentColor"/>
</svg>
